<?xml version="1.0" encoding="UTF-8" standalone="no"?>
<!-- Created with Inkscape (http://www.inkscape.org/) -->

<svg
   width="11.27527mm"
   height="6.7836261mm"
   viewBox="0 0 11.27527 6.7836261"
   version="1.1"
   id="svg108794"
   xmlns="http://www.w3.org/2000/svg"
   xmlns:svg="http://www.w3.org/2000/svg">
  <defs
     id="defs108791" />
  <g
     id="layer1"
     transform="translate(-123.91685,-78.165916)">
    <path
       style="fill:#107e8f;fill-opacity:1;stroke-width:0.104364"
       d="m 129.53671,84.942913 -0.14077,-0.0066 -0.26091,-0.10205 -0.26091,-0.102076 -2.32905,-2.317777 -2.32905,-2.317776 -0.14959,-0.281808 -0.14958,-0.281808 v -0.219101 -0.219101 l 0.15831,-0.306123 0.15831,-0.30615 0.30614,-0.158326 0.30614,-0.158301 h 0.33828 0.33827 l 2.01592,2.006309 2.01593,2.006309 1.06889,-1.043755 1.0689,-1.043728 0.95192,-0.910378 0.95193,-0.910405 h 0.44133 0.44133 l 0.35483,0.354859 0.35484,0.354833 0.002,0.453972 0.002,0.453972 -2.42797,2.370005 -2.42797,2.369979 -0.32886,0.16084 -0.32886,0.160814 -0.14077,-0.0066 z"
       id="path173903-8" />
  </g>
</svg>
