<svg xmlns="http://www.w3.org/2000/svg" width="672.454" height="1018.7" viewBox="0 0 177.92 269.531" xmlns:v="https://vecta.io/nano"><defs><linearGradient id="A" x1="-56.981" y1="51.242" x2="120.939" y2="51.242" gradientUnits="userSpaceOnUse"><stop offset="0" stop-color="#00b199"/><stop offset="1" stop-color="#6db981"/></linearGradient></defs><path d="M80.964 183.951v-2.056h1.488 1.488l.046.847.046 2.056v1.209h-1.534-1.534zm-102.709.089l-.025-1.518.023-.592 1.202-.019 1.202-.019.011 1.431.017 1.518c.005.066-.284.092-1.188.106l-1.195.019zm79.055.876c-.059-.06-.06-1.315-.001-2.279l.045-.744 1.192.019c1.084.017 1.191.03 1.186.141l-.017 1.516-.012 1.394h-1.173c-.645 0-1.194-.021-1.22-.047zm-51.489-1.731v-1.29h1.534 1.534v1.29 1.29H7.356 5.822zm-27.557-9.282c-.026-.026-.046-1.123-.046-2.44v-2.393h1.22 1.22v2.44 2.44h-1.173c-.645 0-1.194-.021-1.22-.046zm27.557-2.393v-2.442l1.516.019 1.516.019v2.405 2.405l-1.516.019-1.516.019zm51.512.002v-2.441h1.221 1.221l-.018 2.422-.018 2.422-1.202.019-1.202.019zm23.607 2.392c-.026-.026-.046-1.123-.046-2.44v-2.393h1.534 1.534v2.44 2.44h-1.487c-.818 0-1.508-.021-1.534-.046zm-102.746-14.087l-.046-2.893v-1.586h1.209 1.209l.039 2.84.006 2.893c-.018.029-.559.052-1.202.052h-1.17l-.046-1.307zm27.589 1.22c-.019-.048-.025-1.342-.015-2.875l.018-2.788 1.516-.019 1.516-.019v2.894 2.894H7.319c-1.137 0-1.509-.021-1.534-.087zm51.587.022c-.022-.036-.019-1.338.007-2.894l.048-2.829 1.191.019 1.191.019.023.488c.013.268.001 1.562-.026 2.875l-.049 2.387h-1.173c-.656 0-1.191-.029-1.213-.065zm23.523-2.827v-2.893h1.534 1.534v2.893 2.893h-1.534-1.534zm-102.769-9.637l-.046-4.252v-1.899h1.22 1.22v2.004l.046 4.252.046 2.248h-1.22-1.22l-.046-2.353zm27.627-1.899v-4.252h1.534H8.82v4.252 4.252H7.286 5.753zm51.675 1.731l.046-4.252v-1.731h1.22 1.22v1.586l-.046 4.252-.046 2.666h-1.22-1.22l.046-2.521zm23.467-1.731v-4.252h1.534 1.534v4.252 4.252h-1.534-1.534zm-102.839-6.533c-.024-.26-.045-1.303-.045-2.319l-.047-4.813-.046-2.966-.529-.12c-2.346-.532-4.433-2.293-5.417-4.57-1.3-3.007-.595-6.528 1.761-8.794.972-.935 2.134-1.624 3.268-1.937l.486-.134-.02-.724c-.027-.974-.13-2.131-.292-3.268l-.281-2.405c-.501-4.975-1.169-6.931-2.978-8.723-1.822-1.805-4.556-2.782-8.941-3.197-3.542-.335-6.005-1.367-7.982-3.345-1.858-1.858-2.94-4.219-3.394-7.406l-.151-1.062-.458-.149a8.07 8.07 0 0 1-4.887-4.614c-.417-1.08-.514-1.637-.512-2.942.002-1.057.022-1.259.186-1.869a7.92 7.92 0 0 1 1.573-3.123c.993-1.244 2.508-2.225 4.054-2.627l.522-.136.018-8.438-.105-8.472a5.28 5.28 0 0 0-.471-.081c-.472-.064-1.579-.423-2.091-.678-2.314-1.153-3.953-3.372-4.361-5.902-.103-.641-.087-2.047.031-2.663.483-2.527 2.127-4.643 4.468-5.752.648-.307 1.816-.654 2.201-.654.108 0 .217-.034.243-.076s.024-5.19-.004-11.44l-.052-11.363-4.54 4.54-4.54 4.54-.853-.855-.853-.855 6.011-6.012 6.011-6.012 5.943 5.942 5.943 5.942-.853.855-.853.855-4.486-4.479-4.486-4.479.048 11.466.066 11.485c.01.011.202.067.428.125 1.295.337 2.453 1.008 3.481 2.017.991.974 1.592 1.922 2.012 3.177 1.396 4.17-1.052 8.841-5.272 10.059l-.576.166-.018 8.47-.018 8.47.46.08c.545.095 1.494.386 1.853.568l.256.13.368-.469c.913-1.165 2.572-2.573 4.139-3.514 1.682-1.009 3.151-1.654 5.845-2.563 1.027-.347 2.218-.798 2.647-1.002 3.185-1.517 5.256-3.837 6.322-7.083.253-.771.557-2.053.556-2.35 0-.105-.123-.157-.68-.287-2.73-.635-5.038-2.878-5.767-5.605a7.86 7.86 0 0 1 2.182-7.809c1.129-1.079 2.477-1.777 4.021-2.085.707-.141 2.296-.124 3.032.032 5.511 1.167 8.101 7.464 5.006 12.174-.405.616-1.424 1.658-2.032 2.077-.883.608-1.936 1.075-2.864 1.267-.311.064-.395.111-.42.233a51.14 51.14 0 0 0-.148.849c-.717 4.253-3.126 7.862-6.668 9.989-1.308.786-2.221 1.182-4.381 1.898-1.922.637-2.536.882-3.933 1.568-1.295.636-2.189 1.188-3.102 1.915-.604.481-1.76 1.63-1.983 1.97l-.123.188.362.397c1.346 1.473 2.038 3.3 2.029 5.355a7.83 7.83 0 0 1-1.686 4.888c-.615.798-1.704 1.68-2.677 2.168-.845.425-2.129.785-2.796.785-.22 0-.236.016-.236.227a6.54 6.54 0 0 0 .098.784c.697 3.951 2.683 6.467 5.966 7.556.94.312 1.784.47 3.381.632 3.338.338 5.61.929 7.557 1.964 2.147 1.142 3.632 2.645 4.64 4.695.449.913.932 2.299 1.087 3.114.086.454.204.697.204.421 0-.084.142-.584.315-1.112 1.676-5.093 5.769-7.724 12.719-8.174.633-.041 1.514-.12 1.958-.176 4.913-.614 8.499-3.524 10.477-8.504.436-1.097.526-1.427.39-1.427-.049 0-.374-.144-.723-.319-2.261-1.138-3.831-3.262-4.27-5.779-.159-.913-.097-2.352.142-3.269.738-2.836 2.972-5.026 5.874-5.757l.289-.073-.029-7.336-.07-8.461-.04-1.126-.394-.049a8.96 8.96 0 0 1-2.136-.68c-2.522-1.264-4.139-3.595-4.432-6.387-.241-2.305.618-4.672 2.305-6.352.985-.981 2.242-1.704 3.606-2.074.627-.17.787-.185 2.006-.183 1.138.002 1.401.023 1.871.153 2.36.65 4.173 2.12 5.201 4.215 1.655 3.373.762 7.349-2.18 9.706-.693.555-1.978 1.214-2.78 1.426l-.579.153.017 5.1.06 8.457.043 3.357.32.048a9.92 9.92 0 0 1 1.873.556l.362.165.295-.395c.467-.625 1.771-1.881 2.583-2.488 2.063-1.541 4.152-2.564 7.525-3.684 1.683-.559 2.449-.866 3.267-1.313 2.513-1.372 4.278-3.323 5.33-5.895.32-.783.75-2.315.835-2.978l.045-.349-.759-.183c-2.872-.694-5.169-3.064-5.8-5.986-.574-2.656.218-5.355 2.136-7.276 2.136-2.14 5.268-2.881 8.127-1.923 3.516 1.178 5.781 4.712 5.357 8.36-.259 2.226-1.384 4.192-3.16 5.518-.883.66-1.824 1.083-3.187 1.433-.187.048-.248.103-.263.235-.011.095-.101.595-.201 1.113-.968 5.019-4.034 8.775-8.807 10.79a33.55 33.55 0 0 1-1.987.713c-3.678 1.203-6.111 2.477-7.912 4.145-.52.482-1.394 1.436-1.394 1.523 0 .032.18.259.401.503.783.868 1.422 2.077 1.774 3.354.129.469.151.733.152 1.87.002 1.219-.013 1.379-.183 2.006a9.46 9.46 0 0 1-1.146 2.507c-.738 1.11-2.097 2.231-3.368 2.779-.552.238-1.429.502-1.871.562l-.164.022.006 16.625.053 27.795.046 11.17H7.309 5.776l-.046-10.926-.051-25.773-.071-14.743-.472.759a13.94 13.94 0 0 1-2.032 2.61C1.793 93.913.616 94.775-.949 95.526c-2.004.961-3.716 1.369-6.592 1.571-2.365.167-3.855.426-5.275.92-1.527.531-2.599 1.175-3.569 2.143-1.243 1.242-1.948 2.632-2.422 4.78-.249 1.128-.377 2.23-.534 4.599-.145 2.195-.173 2.519-.29 3.364-.074.538-.076.54-.285.54-.204 0-.209.007-.167.261a3.46 3.46 0 0 1 .044.445c.001.166.033.188.332.231 1.748.248 3.312 1.027 4.551 2.266 2.706 2.706 3.101 6.902.949 10.075-.465.685-1.411 1.612-2.146 2.101-.961.64-1.818.986-3.085 1.246l-.202.041.045 3.638.061 5.242.016 1.603-1.191.019-1.191.019zm2.196-12.525c2.418-.465 4.107-2.281 4.45-4.782.309-2.254-1.072-4.683-3.194-5.624-1.435-.636-3.18-.616-4.605.051-2.678 1.253-3.882 4.521-2.658 7.219a5.71 5.71 0 0 0 2.746 2.747c1.001.454 2.188.595 3.262.389zM8.309 82.629c1.285-.176 2.238-.661 3.201-1.628.532-.534.687-.744.959-1.297.438-.89.602-1.572.602-2.5-.002-2.515-1.594-4.625-4.011-5.316-.449-.128-.725-.158-1.46-.157-1.076.002-1.527.104-2.44.555-1.801.89-2.921 2.611-3.013 4.632-.077 1.693.405 2.929 1.619 4.15.505.508.749.694 1.255.952 1.15.589 2.12.768 3.289.608zm-51.302-.662c1.864-.538 3.298-2.015 3.789-3.902.198-.763.199-1.946.001-2.706-1.054-4.047-6.01-5.507-9.05-2.665-2.241 2.096-2.361 5.526-.27 7.761 1.414 1.511 3.529 2.09 5.53 1.512zm76.552-31.541a6.45 6.45 0 0 0 1.089-.414c2.825-1.417 3.858-4.957 2.247-7.702-.367-.626-1.274-1.533-1.901-1.902-2.774-1.63-6.287-.596-7.733 2.276-.402.798-.546 1.434-.55 2.414-.003 1.01.118 1.551.547 2.44 1.129 2.34 3.732 3.533 6.301 2.888zm-52.096-.488a5.49 5.49 0 0 0 4.055-5.631c-.257-3.969-4.484-6.368-7.995-4.537a5.47 5.47 0 0 0-2.799 3.516 6.12 6.12 0 0 0 .001 2.71c.677 2.553 2.993 4.256 5.596 4.115.333-.018.846-.096 1.141-.173zm26.973-.065c1.515-.483 2.718-1.509 3.377-2.881.42-.874.52-1.332.52-2.382 0-1.069-.1-1.513-.549-2.44a5.36 5.36 0 0 0-2.528-2.512c-.742-.356-1.205-.463-2.184-.501-1.079-.042-1.721.096-2.71.583-.552.272-.763.428-1.297.959-.979.975-1.454 1.918-1.634 3.247-.37 2.726 1.525 5.402 4.27 6.031.66.151 2.107.096 2.736-.104zm-52.565-.384c2.031-.419 3.651-1.964 4.205-4.007.192-.71.172-2.175-.04-2.858-.751-2.419-2.816-3.974-5.273-3.971-1.464.002-2.649.455-3.704 1.418-1.767 1.613-2.288 4.218-1.277 6.38a5.57 5.57 0 0 0 3.779 3.035c.592.13 1.692.132 2.31.004zm101.652 91.088c-.016-.029-.001-2.154.033-4.723l.042-5.395-.019-.725-.486-.133c-.647-.177-1.495-.581-2.154-1.025-3.257-2.198-4.417-6.428-2.729-9.954.41-.856.789-1.405 1.426-2.066 1.128-1.171 2.391-1.907 3.856-2.247l.531-.124.037-.492.11-1.433c.096-1.244.79-5.981 1.058-7.214 1.013-4.667 3.354-7.828 7.616-10.282 1.465-.843 3.107-1.541 5.373-2.282 3.029-.991 4.478-1.805 6.102-3.43.95-.95 1.543-1.756 2.1-2.848.318-.624.337-.694.337-1.206v-.544l-.505-.149c-2.182-.643-4.102-2.354-5.013-4.468-1.217-2.822-.657-6.222 1.388-8.431l.382-.412-.122-.187c-.203-.309-1.288-1.405-1.834-1.853-1.732-1.419-4.295-2.699-7.288-3.642-3.069-.966-5.196-2.184-7.016-4.014-2.039-2.052-3.441-4.849-3.94-7.861l-.14-.823c-.023-.122-.107-.168-.43-.235-.846-.175-1.963-.66-2.771-1.203-.544-.366-1.489-1.285-1.923-1.87a8.77 8.77 0 0 1-1.147-2.244c-1.505-4.761 1.651-9.671 6.618-10.296 4.389-.552 8.435 2.743 8.821 7.184.317 3.655-1.946 7.084-5.427 8.222-.335.109-.756.221-.935.248-.398.06-.401.082-.151 1.183.903 3.983 3.118 6.757 6.771 8.481.407.192 1.512.608 2.456.925 2.18.732 2.973 1.048 4.4 1.757 1.302.647 2.26 1.236 3.289 2.026.816.626 1.887 1.661 2.415 2.334l.365.466.366-.162a8.43 8.43 0 0 1 1.757-.531l.452-.079-.018-8.47-.018-8.47-.558-.161c-2.279-.659-4.265-2.471-5.118-4.668-.442-1.139-.529-1.638-.522-2.997.005-1.043.028-1.266.186-1.859.744-2.782 2.826-4.919 5.563-5.71l.553-.16v-5.448l.046-7.327.046-1.88-.412-.09c-2.282-.5-4.487-2.342-5.443-4.547-.774-1.786-.855-3.852-.225-5.738.625-1.87 2.076-3.551 3.865-4.476a9.12 9.12 0 0 1 2.416-.792c.84-.134 2.375-.055 3.212.165 2.741.719 4.929 2.905 5.679 5.673.169.625.185.791.185 2.006s-.016 1.382-.183 2.001c-.722 2.663-2.84 4.845-5.424 5.587-.328.094-.74.193-.916.219l-.32.048-.047 2.102c-.026 1.156-.037 4.421-.025 7.255l.022 5.154.488.083c1.024.174 2.045.575 2.94 1.155l.43.279.562-.557c1.237-1.225 2.742-2.273 4.607-3.208 1.462-.733 2.504-1.15 4.619-1.85 2.919-.966 4.507-1.894 6.124-3.579 1.489-1.552 2.537-3.645 3.022-6.031.094-.464.164-.846.156-.849a148.96 148.96 0 0 0-.767-.192c-2.286-.569-4.222-2.165-5.244-4.325-.479-1.013-.67-1.84-.709-3.083-.028-.862-.01-1.168.106-1.743a7.81 7.81 0 0 1 2.359-4.289c1.242-1.18 2.935-1.955 4.649-2.128l.479-.048-.043-10.464-.087-25.651-.044-15.187-4.54 4.54-4.54 4.54-.853-.855-.853-.855 6.012-6.011 6.012-6.011 5.959 5.959 5.959 5.959-.835.837c-.459.46-.867.837-.905.837s-2.073-2-4.52-4.444l-4.45-4.444.041 15.405.084 25.771.043 10.366.357.118c2.336.774 4.275 2.738 5.048 5.115.362 1.112.465 2.606.26 3.772a7.98 7.98 0 0 1-5.811 6.311l-.703.184-.045.321c-.025.176-.123.697-.218 1.157-.938 4.541-3.611 8.059-7.675 10.1-.956.48-1.63.743-3.464 1.354-3.725 1.239-5.93 2.453-7.856 4.322l-.607.589.213.309c.345.502.809 1.546 1.016 2.29.181.648.193.779.19 2.017-.003 1.209-.019 1.384-.188 2.006-.583 2.152-2.082 4.025-4.025 5.027-.676.349-1.46.625-2.103.74l-.599.111-.157.032.018 8.441.018 8.441.513.13c2.155.547 4.168 2.246 5.131 4.33 2.076 4.492-.443 9.776-5.247 11.006l-.636.163.044 28.042.044 28.042-1.528-.019-1.528-.019-.042-22.584-.055-25.268-.013-2.684-.322.368c-.453.518-1.54 1.447-2.321 1.982-1.525 1.045-2.614 1.553-5.123 2.389-3.829 1.275-6.05 2.475-7.938 4.286-1.94 1.861-3.027 4.095-3.631 7.46-.1.559-.587 3.882-.735 5.019a31.27 31.27 0 0 0-.134 1.532c-.069 1.07-.06 1.113.249 1.115.082.001.424.081.76.178 4.785 1.387 7.121 6.775 4.864 11.217-.521 1.025-1.393 2.063-2.319 2.761-.935.705-2.327 1.293-3.46 1.464l-.564.085-.046 2.929-.046 4.677c0 .962-.021 2.054-.045 2.428l-.045.68h-1.17c-.644 0-1.183-.024-1.199-.052zm3.36-13.307c3.063-.888 4.722-4.155 3.629-7.149-1.095-3.001-4.567-4.443-7.439-3.088-1.262.595-2.127 1.462-2.703 2.709-.362.783-.476 1.341-.472 2.311.003.7.033.939.19 1.464a5.5 5.5 0 0 0 4.536 3.935c.612.094 1.579.016 2.259-.181zm23.037-45.262c.89-.228 1.714-.703 2.413-1.392a5.16 5.16 0 0 0 1.402-2.235c.213-.623.227-.721.227-1.638.001-1.356-.255-2.209-.962-3.199-.88-1.233-2.231-2.057-3.733-2.276-1.091-.16-2.111.01-3.175.525-1.905.923-3.046 2.765-3.046 4.915 0 2.061 1.07 3.861 2.871 4.829 1.217.654 2.631.82 4.002.47zM59.302 49.947c1.385-.355 2.544-1.2 3.292-2.4 1.702-2.73.729-6.289-2.124-7.777-1.364-.711-2.911-.812-4.401-.286-1.644.58-2.962 2.021-3.448 3.772-.093.334-.124.699-.124 1.425.001.917.014 1.016.227 1.638a7.42 7.42 0 0 0 .504 1.131c.842 1.424 2.401 2.432 4.107 2.657.432.057 1.445-.025 1.967-.159zm25.079-.458a5.52 5.52 0 0 0 3.831-3.039c.665-1.42.665-3.235 0-4.655-1.104-2.358-3.705-3.603-6.272-3.001-1.825.428-3.273 1.77-3.914 3.624-.215.623-.228.712-.23 1.669-.002.869.021 1.084.161 1.534.604 1.934 2.09 3.369 3.965 3.83.673.165 1.775.183 2.46.039zm-.085-30.258c1.1-.227 1.937-.688 2.768-1.524.628-.631 1.036-1.294 1.332-2.164.272-.797.318-2.12.104-2.966a5.47 5.47 0 0 0-4.05-4.047 6.13 6.13 0 0 0-2.963.106c-.829.28-1.521.702-2.125 1.296-1.206 1.186-1.736 2.534-1.655 4.214.121 2.506 1.859 4.547 4.338 5.093a6.56 6.56 0 0 0 2.25-.007zm25.562-.172c1.617-.501 2.912-1.705 3.512-3.262a5 5 0 0 0 .357-2.027c-.002-2.51-1.629-4.576-4.182-5.31-.187-.054-.709-.091-1.29-.093-1.119-.003-1.615.113-2.55.598-2.784 1.443-3.773 4.996-2.145 7.703.483.803 1.385 1.629 2.257 2.067a5.78 5.78 0 0 0 4.041.325zM11.85 28.406c-.646-.092-1.25-.263-2.089-.593-1.39-.546-3.337-.91-7.999-1.499-4.155-.525-5.405-.727-7.092-1.151-2.277-.572-3.786-1.265-5.143-2.365l-.437-.355.041-.627c.229-3.492.701-5.949 2.305-11.983 1.168-4.394 1.535-5.959 1.866-7.953.273-1.648.321-2.19.351-3.938.061-3.635.72-5.98 3.368-11.989 1.051-2.385 1.618-3.771 2.082-5.089l.331-.941.05-2.509c.074-3.669.273-5.334 1.389-11.606 1.037-5.83 1.277-8.001 1.25-11.292-.012-1.44.007-1.875.1-2.29.245-1.092.28-2.38.154-5.642-.094-2.414-.103-3.28-.043-4.174.211-3.176.97-5.12 2.647-6.784 1.225-1.216 1.649-1.392 3.352-1.392 1.37 0 2.407.231 3.594.801 1.414.679 2.414 1.479 5.024 4.024 2.679 2.611 3.622 3.299 5.362 3.91.381.134.96.403 1.286.599 1.102.661 2.613 1.157 4.072 1.335a13.15 13.15 0 0 0 3.635-.175c2.477-.515 4.774-1.737 6.726-3.578.589-.556 1.062-.874 4.527-3.048l12.617-7.97 21.65-13.655a43.42 43.42 0 0 1 .234 1.48c.245 1.646.477 2.71.935 4.287.292 1.005.615 1.966 2.483 7.389 1.496 4.343 2.057 6.799 2.139 9.375.058 1.796-.081 2.915-.546 4.41l-.223.716.204.213c.355.37 1.096.676 2.437 1.005 1.498.368 1.973.526 2.396.798.719.461 1.056 1.003 1.105 1.777.053.824-.227 1.53-1.1 2.774-1.523 2.171-4.825 4.477-8.434 5.891-2.149.842-3.506 1.245-8.161 2.425-3.803.964-5.397 1.409-6.721 1.877-.498.176-3.98 1.227-7.737 2.336L40.21-32.13l-2.034.611.916 1.086 7.965 9.276L58.741-7.355c.792.978 1.437 1.809 1.434 1.847s-.588.167-1.301.286c-1.476.246-1.737.31-2.4.591-.803.34-1.629.928-2.382 1.694-1.058 1.077-1.587 1.845-3.342 4.852-1.159 1.986-1.802 2.958-2.552 3.856-1.102 1.32-2.384 2.234-3.783 2.694-.424.14-.642.159-2.021.178-2.364.033-4.053.3-6.007.95-4.876 1.622-8.827 5.295-11.441 10.637l-.52 1.062-.642.511c-.353.281-1.262 1.065-2.021 1.742-3.142 2.803-4.534 3.782-6.253 4.401-1.196.43-2.615.608-3.661.459zm2.335-2.583c1.527-.429 2.861-1.338 5.839-3.981l1.934-1.693c.453-.381.526-.483 1.021-1.436 2.805-5.4 6.65-9.071 11.568-11.048 2.427-.975 5.565-1.535 8.349-1.489.689.011.772-.003 1.203-.198.666-.303 1.205-.695 1.812-1.318.899-.922 1.314-1.538 3.162-4.694 1.532-2.616 2.266-3.623 3.529-4.848.799-.774 1.81-1.485 2.693-1.892l.577-.266-1.86-2.231-8.909-10.421c-7.145-8.249-11.172-13.036-11.032-13.115.133-.074 12.921-3.901 20.786-6.22l7.981-2.407c1.426-.496 3.224-1 6.483-1.818 4.607-1.156 6.151-1.608 8.142-2.386 3.735-1.459 6.882-3.789 7.948-5.886l.147-.289-.189-.076c-.104-.042-.817-.234-1.583-.426-1.089-.274-1.55-.426-2.109-.699-1.176-.574-1.953-1.42-2.311-2.514l-.15-.46.24-.562c.945-2.207.988-4.861.137-8.347-.4-1.639-.893-3.195-2.156-6.806s-1.813-5.332-2.192-6.856c-.124-.498-.235-.917-.246-.93-.03-.034-1.734 1.04-16.795 10.583l-15.788 9.969c-1.914 1.196-2.367 1.512-2.917 2.031-1.185 1.119-2.361 1.925-3.949 2.708-1.204.594-2.158.943-3.311 1.212-1.295.303-1.782.354-3.346.354-1.252 0-1.63-.026-2.3-.153-1.461-.279-2.871-.777-4.01-1.418a11 11 0 0 0-1.288-.598c-1.259-.468-2.603-1.277-3.834-2.308-.364-.305-1.431-1.305-2.37-2.222-1.969-1.922-2.523-2.41-3.335-2.939-1.162-.758-2.149-1.059-3.469-1.059h-.816l-.377.291c-.783.604-1.559 1.778-1.891 2.86-.463 1.512-.539 2.821-.389 6.701.125 3.228.093 4.547-.143 5.901-.072.414-.112 1.305-.132 2.962-.044 3.568-.169 4.575-1.531 12.373-.905 5.177-1.105 7.071-1.088 10.282l.011 1.952-.26.836c-.497 1.598-1.021 2.92-2.41 6.082-1.481 3.371-2.019 4.746-2.461 6.295-.536 1.876-.742 3.365-.733 5.293.012 2.485-.511 5.311-2.068 11.17-1.578 5.94-2.002 7.898-2.295 10.61-.13 1.204-.198 1.05.656 1.491 1.778.918 3.965 1.401 9.535 2.104 5.23.661 7.216 1.04 8.825 1.685.375.151.893.318 1.15.372.613.128 1.638.079 2.313-.11z" fill="url(#A)" transform="translate(56.981 83.524)"/></svg>