<?xml version="1.0" encoding="UTF-8" standalone="no"?>
<!-- Created with Inkscape (http://www.inkscape.org/) -->

<svg
   width="15.066723mm"
   height="14.719006mm"
   viewBox="0 0 15.066723 14.719005"
   version="1.1"
   id="svg13131"
   xmlns="http://www.w3.org/2000/svg"
   xmlns:svg="http://www.w3.org/2000/svg">
  <defs
     id="defs13128" />
  <g
     id="layer1"
     transform="translate(-99.73514,-202.59425)">
    <g
       id="g14222"
       transform="translate(-124.58248,-1228.8271)">
      <path
         style="fill:#ffffff;stroke-width:0.0294987"
         d="m 229.49179,1446.1332 c -0.1433,-0.028 -0.75667,-0.2833 -1.10208,-0.4587 -1.81176,-0.9201 -3.24295,-2.6658 -3.80285,-4.6387 -0.19411,-0.6839 -0.26854,-1.2588 -0.26924,-2.0797 0,-0.6737 0.0278,-0.9739 0.14773,-1.5588 0.55792,-2.7229 2.67116,-4.9735 5.36262,-5.7112 1.53809,-0.4215 3.29755,-0.3361 4.74656,0.2304 1.76462,0.69 3.18439,1.9842 4.0337,3.677 0.38805,0.7735 0.6229,1.549 0.74135,2.4482 0.0465,0.353 0.0462,1.4586 0,1.8289 -0.14758,1.1697 -0.53425,2.2358 -1.15382,3.181 -0.89453,1.3647 -2.10781,2.3599 -3.5854,2.9411 -0.45592,0.1793 -0.61912,0.1898 -0.75997,0.049 l -0.0955,-0.095 -0.0177,-1.3343 c -0.0193,-1.4281 -0.0266,-1.5029 -0.18307,-1.8545 -0.0388,-0.087 -0.12478,-0.2266 -0.19111,-0.31 l -0.12058,-0.1517 0.24157,-0.034 c 0.77225,-0.1081 1.37385,-0.3198 1.89291,-0.666 0.63125,-0.4211 1.02022,-1.0746 1.21136,-2.0351 0.0629,-0.3161 0.09,-1.2035 0.0455,-1.4879 -0.0759,-0.4848 -0.31576,-1.0224 -0.61645,-1.3816 l -0.11845,-0.1414 0.0725,-0.2498 c 0.12875,-0.4433 0.0944,-1.0651 -0.0867,-1.5701 -0.0575,-0.1602 -0.076,-0.1834 -0.16458,-0.2063 -0.27412,-0.071 -1.05206,0.2145 -1.72653,0.6328 -0.16803,0.1042 -0.25796,0.1428 -0.31118,0.1335 -0.0412,-0.01 -0.20945,-0.041 -0.37396,-0.076 -0.94089,-0.1984 -1.97126,-0.1984 -2.91218,0 -0.16449,0.035 -0.33355,0.069 -0.37571,0.076 -0.0552,0.01 -0.13504,-0.024 -0.28592,-0.1209 -0.60148,-0.3855 -1.45308,-0.6972 -1.76609,-0.6464 -0.0951,0.015 -0.10189,0.026 -0.17228,0.2564 -0.11417,0.3743 -0.14312,0.5656 -0.14086,0.9318 0.003,0.2718 0.0168,0.3886 0.076,0.588 l 0.0739,0.2488 -0.11353,0.1347 c -0.29794,0.3534 -0.5452,0.907 -0.62085,1.3902 -0.0446,0.2848 -0.0174,1.1724 0.0457,1.4875 0.15113,0.756 0.44427,1.3573 0.85293,1.7497 0.30714,0.295 0.80248,0.5812 1.28688,0.7438 0.21055,0.071 0.77366,0.19 1.03893,0.2203 l 0.16873,0.019 -0.11488,0.1454 c -0.14923,0.1888 -0.2571,0.4198 -0.31435,0.6733 -0.0448,0.1985 -0.0491,0.2048 -0.16882,0.2492 -0.26411,0.098 -0.40221,0.1195 -0.77186,0.1211 -0.37867,0 -0.38594,0 -0.5831,-0.098 -0.2553,-0.1282 -0.47609,-0.3412 -0.6782,-0.6545 -0.29275,-0.4537 -0.73747,-0.7734 -1.13106,-0.8129 -0.22644,-0.023 -0.39526,0.026 -0.39526,0.1141 0,0.067 0.23702,0.3071 0.44585,0.4513 0.0712,0.049 0.19976,0.1819 0.28578,0.295 0.14027,0.1844 0.21094,0.3146 0.46985,0.865 0.14192,0.3017 0.49858,0.5795 0.89293,0.6954 0.0892,0.026 0.3481,0.063 0.57522,0.081 0.33743,0.027 0.46563,0.025 0.7006,-0.01 l 0.28761,-0.042 0.007,0.5175 c 0.0147,1.0405 0.008,1.0963 -0.13866,1.1925 -0.0776,0.051 -0.23555,0.077 -0.34058,0.057 z"
         id="path158699" />
    </g>
  </g>
</svg>
