<?xml version="1.0" encoding="UTF-8" standalone="no"?>
<!-- Created with Inkscape (http://www.inkscape.org/) -->

<svg
   width="14.42388mm"
   height="14.44625mm"
   viewBox="0 0 14.423879 14.446249"
   version="1.1"
   id="svg13131"
   xmlns="http://www.w3.org/2000/svg"
   xmlns:svg="http://www.w3.org/2000/svg">
  <defs
     id="defs13128" />
  <g
     id="layer1"
     transform="translate(-90.57262,-203.00225)">
    <g
       id="g14222"
       transform="translate(-124.58248,-1228.8271)">
      <path
         style="fill:#ffffff;stroke-width:0.0189538"
         d="m 215.74494,1446.2539 c -0.21462,-0.051 -0.42544,-0.229 -0.52944,-0.4486 l -0.0604,-0.1273 v -6.6243 -6.6244 l 0.0604,-0.1274 c 0.10629,-0.2245 0.29182,-0.3813 0.52436,-0.4433 0.14585,-0.039 13.10852,-0.039 13.25436,0 0.23254,0.062 0.41802,0.2188 0.52436,0.4433 l 0.0604,0.1274 v 6.6244 6.6243 l -0.0604,0.1273 c -0.10629,0.2246 -0.29182,0.3814 -0.52436,0.4433 -0.0796,0.021 -0.44725,0.025 -1.98824,0.027 h -1.89063 v -2.7957 -2.7957 h 0.94305 0.94307 l 0.13781,-1.0756 c 0.0758,-0.5917 0.13757,-1.0864 0.1373,-1.0994 -4.4e-4,-0.019 -0.22983,-0.024 -1.08256,-0.024 h -1.08203 l 0.009,-0.8387 c 0.008,-0.6953 0.0137,-0.8589 0.0394,-0.9575 0.0822,-0.3154 0.23866,-0.4779 0.56195,-0.584 0.0917,-0.03 0.19581,-0.036 0.86714,-0.042 l 0.7629,-0.013 v -0.9825 -0.9826 l -0.0711,-0.013 c -0.32772,-0.052 -1.52324,-0.095 -1.87515,-0.067 -0.74826,0.057 -1.32632,0.2981 -1.76989,0.7388 -0.42123,0.4184 -0.66909,0.9652 -0.75604,1.6676 -0.0114,0.092 -0.0199,0.5632 -0.0199,1.1133 v 0.9528 h -0.94296 -0.94294 l -0.005,1.0946 -0.005,1.0946 h 0.94784 0.94784 v 2.7956 2.7957 h -3.52066 c -2.04498,0 -3.55151,-0.013 -3.59425,-0.019 z"
         id="path158865" />
    </g>
  </g>
</svg>
