<?xml version="1.0" encoding="UTF-8" standalone="no"?>
<!-- Created with Inkscape (http://www.inkscape.org/) -->

<svg
   width="11.210419mm"
   height="9.4781761mm"
   viewBox="0 0 11.210418 9.478176"
   version="1.1"
   id="svg13131"
   xmlns="http://www.w3.org/2000/svg"
   xmlns:svg="http://www.w3.org/2000/svg">
  <defs
     id="defs13128" />
  <g
     id="layer1"
     transform="translate(-57.538574,-215.91732)">
    <path
       style="fill:#ee4d59;fill-opacity:1;stroke-width:0.022163"
       d="m 62.948162,225.3445 c -0.10338,-0.057 -4.38499,-4.1306 -4.64197,-4.416 -0.36198,-0.4021 -0.59877,-0.8625 -0.71816,-1.3962 -0.0558,-0.2496 -0.0667,-0.8256 -0.0208,-1.1004 0.15902,-0.9518 0.76456,-1.7722 1.62954,-2.208 0.20781,-0.1046 0.56903,-0.227 0.80896,-0.2739 0.20647,-0.041 0.87953,-0.041 1.086,0 0.39477,0.077 0.82407,0.254 1.16356,0.479 0.20652,0.1369 0.64419,0.5709 0.77646,0.7699 0.0545,0.082 0.10397,0.1489 0.11006,0.1489 0.006,0 0.0556,-0.067 0.11006,-0.1489 0.13009,-0.1957 0.56901,-0.6324 0.76721,-0.7634 0.35216,-0.2326 0.7141,-0.3862 1.11801,-0.4743 0.26396,-0.058 0.9294,-0.059 1.19107,0 0.58058,0.1269 1.08625,0.3927 1.49344,0.785 0.26915,0.2592 0.45813,0.5154 0.61731,0.8366 0.2159,0.4357 0.31023,0.8394 0.31008,1.3272 -2.5e-4,0.7052 -0.20922,1.3146 -0.64264,1.8735 -0.15163,0.1955 -4.64496,4.4922 -4.77076,4.562 -0.0574,0.032 -0.12751,0.05 -0.19378,0.05 -0.0663,0 -0.13635,-0.018 -0.19371,-0.05 z"
       id="path129137" />
  </g>
</svg>
