<?xml version="1.0" encoding="UTF-8" standalone="no"?>
<!-- Created with Inkscape (http://www.inkscape.org/) -->

<svg
   width="18.706306mm"
   height="10.55099mm"
   viewBox="0 0 18.706306 10.55099"
   version="1.1"
   id="svg13131"
   xmlns="http://www.w3.org/2000/svg"
   xmlns:svg="http://www.w3.org/2000/svg">
  <defs
     id="defs13128" />
  <g
     id="layer1"
     transform="translate(-69.63953,-217.04762)">
    <path
       style="fill:#00b199;fill-opacity:1;stroke-width:0.0838847"
       d="m 76.042197,227.5783 c -0.243683,-0.045 -0.611429,-0.4234 -0.627663,-0.644 -0.02954,-0.4017 0.04155,-0.6271 0.386853,-1.2259 0.359977,-0.6244 2.335352,-4.105 3.380231,-5.956 0.592734,-1.0499 1.153337,-2.0261 1.340918,-2.3347 0.288264,-0.4743 1.108814,-0.4978 1.408608,-0.041 0.296479,0.4524 0.218483,0.7338 -0.601646,2.1705 -0.41979,0.7353 -1.395653,2.4506 -2.16859,3.8116 -0.772935,1.3612 -1.596139,2.8085 -1.829342,3.2165 -0.503895,0.8817 -0.782401,1.0982 -1.289369,1.0024 z m -3.386529,-1.6531 c -0.117378,-0.067 -0.844036,-0.7825 -1.61478,-1.5916 l -1.401358,-1.4713 v -0.4212 -0.4209 l 1.426596,-1.4904 c 0.784626,-0.8197 1.54341,-1.5392 1.686185,-1.5989 0.565522,-0.2364 1.165342,0.2148 1.165342,0.8767 0,0.3558 -0.03568,0.4064 -1.060607,1.5015 l -1.06061,1.1333 0.199586,0.2278 c 0.109771,0.1261 0.587048,0.6281 1.060611,1.1172 0.840289,0.8677 0.86102,0.8985 0.86102,1.2779 0,0.306 -0.04903,0.4431 -0.230682,0.6446 -0.273111,0.3029 -0.712788,0.3948 -1.031303,0.2153 z m 11.94791,0.036 c -0.318709,-0.1294 -0.535867,-0.496 -0.535867,-0.9064 0,-0.3666 0.02737,-0.407 0.861022,-1.268 0.473564,-0.4889 0.950835,-0.9918 1.060608,-1.117 l 0.199588,-0.228 -1.06061,-1.1333 c -1.02494,-1.0951 -1.060608,-1.1456 -1.060608,-1.5013 0,-0.662 0.599821,-1.1133 1.165344,-0.8768 0.142774,0.059 0.901557,0.7793 1.686185,1.599 l 1.426596,1.4903 v 0.421 0.421 l -1.402121,1.4722 c -1.628158,1.7095 -1.815044,1.8394 -2.340137,1.6273 z"
       id="path124442" />
  </g>
</svg>
