<?xml version="1.0" encoding="UTF-8" standalone="no"?>
<!-- Created with Inkscape (http://www.inkscape.org/) -->

<svg
   width="9.7741852mm"
   height="9.7656221mm"
   viewBox="0 0 9.7741846 9.7656218"
   version="1.1"
   id="svg13131"
   xmlns="http://www.w3.org/2000/svg"
   xmlns:svg="http://www.w3.org/2000/svg">
  <defs
     id="defs13128" />
  <g
     id="layer1"
     transform="translate(-73.24507,-227.18647)">
    <g
       id="g14222"
       transform="translate(-124.58248,-1228.8271)">
      <path
         style="fill:#edeeef;fill-opacity:1;stroke-width:0.0435471"
         d="m 202.06637,1465.7526 c -1.11416,-0.1543 -2.14703,-0.6983 -2.94449,-1.5508 -1.51175,-1.616 -1.72292,-4.0876 -0.50845,-5.9508 0.47455,-0.728 1.24851,-1.4259 1.96326,-1.7703 1.2719,-0.6129 2.93701,-0.6235 4.2284,-0.027 1.00566,0.4646 1.93611,1.4112 2.37992,2.4212 0.565,1.2858 0.55484,2.8631 -0.0266,4.1214 -0.62992,1.3634 -1.96723,2.3857 -3.55037,2.714 -0.3324,0.069 -1.18068,0.092 -1.54171,0.042 z m 1.44088,-0.9311 c 1.54378,-0.3285 2.74738,-1.4573 3.11319,-2.9199 0.13747,-0.5495 0.13736,-1.4484 -3.3e-4,-1.9813 -0.48199,-1.8667 -2.20239,-3.1392 -4.10078,-3.033 -0.58874,0.033 -1.05417,0.1524 -1.55622,0.3995 -0.78754,0.3877 -1.43383,1.0437 -1.8437,1.8714 -0.32015,0.6465 -0.40229,1.0022 -0.40229,1.7419 0,0.4841 0.0188,0.6786 0.0915,0.9449 0.26184,0.9589 0.88466,1.8336 1.68275,2.3634 0.7141,0.474 1.35285,0.6707 2.18837,0.6741 0.30666,0 0.65587,-0.024 0.8274,-0.061 z m -2.71126,-2.5086 c -0.30665,-0.118 -0.55731,-0.347 -0.70169,-0.641 -0.11353,-0.2312 -0.12241,-0.2872 -0.12241,-0.7718 0,-0.4613 0.012,-0.5468 0.10249,-0.7288 0.13076,-0.2632 0.39023,-0.5226 0.6511,-0.6511 0.17439,-0.086 0.27166,-0.1007 0.66169,-0.1006 0.52633,10e-5 0.74676,0.074 1.01474,0.3425 0.29379,0.2938 0.29177,0.3093 -0.0638,0.4883 l -0.31387,0.1581 -0.0836,-0.1147 c -0.26798,-0.3679 -0.85305,-0.3251 -1.03501,0.076 -0.0924,0.2036 -0.11342,0.6865 -0.0411,0.9467 0.088,0.3167 0.43064,0.5076 0.773,0.4308 0.1511,-0.034 0.36662,-0.2158 0.41002,-0.346 0.0127,-0.038 0.10164,-0.012 0.29937,0.087 0.15472,0.078 0.28907,0.1481 0.29856,0.1567 0.01,0.01 -0.034,0.093 -0.0966,0.1878 -0.13022,0.1968 -0.4248,0.4137 -0.68776,0.5065 -0.25923,0.091 -0.79378,0.078 -1.0652,-0.026 z m 2.83056,0 c -0.30665,-0.118 -0.55731,-0.347 -0.70169,-0.641 -0.11353,-0.2312 -0.12241,-0.2872 -0.12241,-0.7718 0,-0.4834 0.009,-0.5393 0.11735,-0.745 0.1545,-0.2929 0.50161,-0.6012 0.78148,-0.6941 0.29824,-0.099 0.89309,-0.072 1.17356,0.054 0.20057,0.09 0.47537,0.3303 0.56157,0.4913 0.0416,0.078 0.015,0.102 -0.26773,0.2443 l -0.31387,0.1581 -0.0836,-0.1147 c -0.11238,-0.1543 -0.31582,-0.2534 -0.51434,-0.2507 -0.39607,0.01 -0.6126,0.2892 -0.61847,0.8103 -0.002,0.1694 0.0203,0.3782 0.0494,0.4641 0.11066,0.3267 0.45387,0.5133 0.77899,0.4235 0.15543,-0.043 0.37105,-0.2192 0.40962,-0.3349 0.0151,-0.045 0.0867,-0.026 0.30106,0.082 0.15472,0.078 0.28912,0.1481 0.29867,0.1568 0.01,0.01 -0.0353,0.092 -0.0996,0.1846 -0.13573,0.1959 -0.40471,0.3968 -0.66984,0.5005 -0.26017,0.1017 -0.79366,0.093 -1.08021,-0.017 z"
         id="path151493" />
    </g>
  </g>
</svg>
