<?xml version="1.0" encoding="UTF-8" standalone="no"?>
<!-- Created with Inkscape (http://www.inkscape.org/) -->

<svg
   width="15.687204mm"
   height="12.801921mm"
   viewBox="0 0 15.687204 12.80192"
   version="1.1"
   id="svg13131"
   xmlns="http://www.w3.org/2000/svg"
   xmlns:svg="http://www.w3.org/2000/svg">
  <defs
     id="defs13128" />
  <g
     id="layer1"
     transform="translate(-78.75939,-222.9452)">
    <g
       id="g14222"
       transform="translate(-124.58248,-1228.8271)">
      <path
         style="fill:#ffffff;stroke-width:0.0307889"
         d="m 207.50904,1464.5415 c -1.33861,-0.1059 -2.77993,-0.5653 -3.91553,-1.2481 l -0.25164,-0.1513 0.55648,0.013 c 0.32996,0.01 0.68932,0 0.88282,-0.024 1.12063,-0.1287 2.14277,-0.5178 3.06655,-1.1673 l 0.24632,-0.1732 -0.23092,-0.023 c -1.13227,-0.1113 -2.10261,-0.7727 -2.58657,-1.763 -0.23742,-0.4859 -0.25969,-0.4445 0.22803,-0.424 0.26792,0.011 0.49966,0 0.65381,-0.021 0.37532,-0.061 0.3919,-0.076 0.14746,-0.1361 -0.32441,-0.08 -0.8508,-0.3515 -1.15116,-0.5939 -0.60571,-0.4889 -1.02517,-1.1917 -1.15477,-1.9349 -0.0461,-0.2645 -0.0631,-0.6001 -0.0304,-0.6001 0.009,0 0.0747,0.03 0.14566,0.066 0.29093,0.1485 0.88964,0.305 1.15735,0.3027 h 0.11205 l -0.0924,-0.065 c -0.19277,-0.1369 -0.65863,-0.6344 -0.79845,-0.8527 -0.34325,-0.5361 -0.48006,-0.9861 -0.50183,-1.6507 -0.0128,-0.3913 -0.005,-0.5065 0.0487,-0.7543 0.0802,-0.3675 0.31916,-0.9713 0.37481,-0.9472 0.0104,0 0.11645,0.119 0.23577,0.2544 0.93359,1.06 2.19012,1.9413 3.50435,2.458 0.86657,0.3407 1.68427,0.5289 2.70402,0.6224 l 0.21012,0.019 -0.0254,-0.1489 c -0.014,-0.082 -0.024,-0.3776 -0.0224,-0.657 0.002,-0.415 0.0149,-0.5518 0.0681,-0.747 0.34153,-1.2527 1.3559,-2.1711 2.62554,-2.377 0.36679,-0.06 0.6441,-0.06 1.01089,0 0.64587,0.1048 1.22596,0.3854 1.67173,0.8089 l 0.17589,0.1671 0.22436,-0.053 c 0.4338,-0.1027 0.98303,-0.3022 1.39656,-0.5072 0.47576,-0.2359 0.46844,-0.2398 0.28739,0.1512 -0.21173,0.4572 -0.67529,1.0095 -1.08242,1.2895 -0.0804,0.055 -0.14625,0.1051 -0.14625,0.1106 0,0.02 0.60772,-0.1 0.89823,-0.1772 0.16382,-0.044 0.42565,-0.1287 0.58186,-0.1891 0.15621,-0.06 0.28897,-0.1047 0.29503,-0.099 0.006,0.01 -0.0806,0.1325 -0.19264,0.281 -0.26828,0.3557 -0.79293,0.896 -1.11158,1.1448 l -0.25537,0.1994 -3.5e-4,0.3601 c -0.003,2.9287 -1.411,5.7763 -3.71224,7.5056 -1.73492,1.3037 -3.93932,1.9151 -6.24768,1.7326 z"
         id="path158569" />
    </g>
  </g>
</svg>
