<?xml version="1.0" encoding="UTF-8" standalone="no"?>
<!-- Created with Inkscape (http://www.inkscape.org/) -->

<svg
   width="4.7494674mm"
   height="4.6350298mm"
   viewBox="0 0 4.7494674 4.6350298"
   version="1.1"
   id="svg70495"
   inkscape:version="1.1.2 (76b9e6a115, 2022-02-25)"
   sodipodi:docname="icon-github.svg"
   xmlns:inkscape="http://www.inkscape.org/namespaces/inkscape"
   xmlns:sodipodi="http://sodipodi.sourceforge.net/DTD/sodipodi-0.dtd"
   xmlns="http://www.w3.org/2000/svg"
   xmlns:svg="http://www.w3.org/2000/svg">
  <sodipodi:namedview
     id="namedview70497"
     pagecolor="#ffffff"
     bordercolor="#666666"
     borderopacity="1.0"
     inkscape:pageshadow="2"
     inkscape:pageopacity="0.0"
     inkscape:pagecheckerboard="0"
     inkscape:document-units="mm"
     showgrid="false"
     fit-margin-top="0"
     fit-margin-left="0"
     fit-margin-right="0"
     fit-margin-bottom="0"
     inkscape:zoom="1.0708779"
     inkscape:cx="-14.941012"
     inkscape:cy="86.844634"
     inkscape:window-width="1920"
     inkscape:window-height="1016"
     inkscape:window-x="0"
     inkscape:window-y="27"
     inkscape:window-maximized="1"
     inkscape:current-layer="layer1" />
  <defs
     id="defs70492" />
  <g
     inkscape:label="Layer 1"
     inkscape:groupmode="layer"
     id="layer1"
     transform="translate(-118.69023,-83.1692)">
    <path
       style="fill:#5b5b5b;fill-opacity:1;stroke-width:0.00927625"
       d="m 120.2394,87.7687 c -0.4538,-0.1668 -0.8307,-0.4589 -1.1213,-0.8687 -0.3526,-0.4971 -0.4942,-1.1139 -0.3989,-1.7371 0.1446,-0.9473 0.8868,-1.7343 1.832,-1.9427 0.3119,-0.068 0.7157,-0.068 1.0276,0 0.5107,0.1131 0.9817,0.4011 1.3183,0.8077 0.079,0.095 0.2024,0.2786 0.2619,0.3884 0.1817,0.3362 0.2808,0.7283 0.2807,1.1104 -4e-4,0.6582 -0.2378,1.2318 -0.7048,1.7009 -0.2464,0.2476 -0.5226,0.4242 -0.8471,0.5416 -0.1022,0.037 -0.1247,0.039 -0.1686,0.018 -0.06,-0.028 -0.06,-0.03 -0.063,-0.4727 0,-0.3432 0,-0.4085 -0.019,-0.4684 -0.021,-0.088 -0.061,-0.1708 -0.1046,-0.2154 -0.018,-0.02 -0.032,-0.037 -0.029,-0.039 0,0 0.047,-0.012 0.099,-0.018 0.2,-0.03 0.3094,-0.065 0.4643,-0.1436 0.2699,-0.1388 0.4142,-0.344 0.486,-0.6917 0.018,-0.085 0.022,-0.1318 0.022,-0.2875 3e-4,-0.1849 0,-0.2215 -0.039,-0.3339 -0.024,-0.079 -0.085,-0.1916 -0.1434,-0.2677 -0.051,-0.067 -0.055,-0.075 -0.045,-0.096 0.038,-0.083 0.049,-0.283 0.023,-0.4086 -0.016,-0.076 -0.047,-0.1774 -0.06,-0.1908 0,0 -0.035,-0.012 -0.069,-0.012 -0.1071,0 -0.3092,0.082 -0.5004,0.1985 l -0.083,0.05 -0.047,-0.012 c -0.1411,-0.038 -0.3841,-0.068 -0.5433,-0.068 -0.1594,0 -0.4023,0.03 -0.5435,0.068 l -0.047,0.012 -0.092,-0.056 c -0.18,-0.1095 -0.3951,-0.1918 -0.5037,-0.1918 h -0.063 l -0.024,0.082 c -0.035,0.1143 -0.044,0.1679 -0.044,0.2766 0,0.094 0.016,0.2005 0.038,0.248 0.012,0.022 0.012,0.029 -0.035,0.083 -0.086,0.1095 -0.1425,0.2232 -0.1756,0.3601 -0.024,0.097 -0.023,0.4032 0,0.5241 0.055,0.2777 0.1685,0.4884 0.3289,0.6108 0.1836,0.1403 0.3462,0.2 0.6859,0.2521 l 0.039,0.012 -0.03,0.039 c -0.06,0.074 -0.094,0.1467 -0.1046,0.2259 -0.012,0.053 -0.019,0.063 -0.1,0.088 -0.055,0.017 -0.09,0.021 -0.1922,0.022 -0.1238,5e-4 -0.126,0 -0.1886,-0.03 -0.079,-0.039 -0.1546,-0.1119 -0.2187,-0.2124 -0.058,-0.09 -0.1336,-0.1622 -0.2167,-0.2048 -0.1022,-0.052 -0.2238,-0.062 -0.251,-0.018 -0.012,0.019 0.027,0.073 0.079,0.1083 0.1059,0.07 0.1781,0.1603 0.2444,0.3043 0.066,0.1421 0.071,0.1505 0.1217,0.202 0.089,0.09 0.1881,0.1276 0.3763,0.1442 0.099,0.012 0.2557,0 0.3047,-0.015 0.012,0 0.016,0.012 0.021,0.08 0,0.046 0.012,0.1523 0.012,0.2345 0,0.1697 -0.012,0.2014 -0.066,0.2303 -0.045,0.023 -0.074,0.02 -0.1755,-0.017 z"
       id="path61106-8" />
  </g>
</svg>
