<?xml version="1.0" encoding="UTF-8" standalone="no"?>
<!-- Created with Inkscape (http://www.inkscape.org/) -->

<svg
   width="44.701035mm"
   height="11.001mm"
   viewBox="0 0 44.701032 11.001"
   version="1.1"
   id="svg13131"
   xmlns="http://www.w3.org/2000/svg"
   xmlns:svg="http://www.w3.org/2000/svg">
  <defs
     id="defs13128" />
  <g
     id="layer1"
     transform="translate(-24.000934,-229.5432)">
    <g
       id="g14222"
       transform="translate(-124.58248,-1228.8271)">
      <g
         id="g14380">
        <path
           id="path7518-2-7-1-8-9-2"
           style="fill:#019ec3;fill-opacity:1;fill-rule:nonzero;stroke:none;stroke-width:0.500986"
           d="m 151.75351,1467.8968 c 0.014,-0.8104 0.0272,-1.5532 0.0272,-1.6506 l 7.8e-4,-0.1755 -1.57621,-0.28 c -0.8677,-0.1544 -1.59726,-0.2873 -1.62112,-0.2948 -0.0241,-0.01 0.5386,-0.4586 1.25158,-1.0017 0.71298,-0.5439 1.2965,-1.0025 1.29762,-1.0202 0,-0.017 -0.34904,-0.6745 -0.7756,-1.4588 -0.42683,-0.7832 -0.77448,-1.4282 -0.77111,-1.4305 0.002,0 0.72169,0.1736 1.5981,0.3918 l 1.59277,0.3982 0.0528,-0.1011 c 0.0283,-0.055 0.31788,-0.7316 0.6439,-1.5015 0.32575,-0.7711 0.60094,-1.4018 0.61077,-1.4018 0.011,7e-4 0.31929,0.6579 0.6835,1.461 0.36534,0.8029 0.68237,1.4675 0.70428,1.4774 0.0219,0.01 0.74246,-0.1798 1.60147,-0.4201 0.85872,-0.239 1.56187,-0.43 1.56187,-0.4232 0,0.01 -0.32882,0.6624 -0.73039,1.4588 -0.40156,0.7953 -0.73067,1.4555 -0.73067,1.4675 0,0.011 0.59672,0.4499 1.32628,0.9742 0.72954,0.5242 1.32065,0.9575 1.3142,0.9643 -0.0121,0.012 -3.09989,0.6548 -3.14397,0.6548 -0.0132,0 0.043,-0.1218 0.12411,-0.271 0.28952,-0.5298 0.38724,-0.9213 0.38612,-1.5433 0,-0.3608 -0.0154,-0.4925 -0.0834,-0.7492 -0.16232,-0.611 -0.45295,-1.0991 -0.8972,-1.5082 -0.58156,-0.5353 -1.23416,-0.7942 -1.99657,-0.7931 -0.85872,8e-4 -1.55654,0.2971 -2.15973,0.9158 -0.34006,0.349 -0.56499,0.7284 -0.72393,1.2187 -0.47513,1.472 0.25666,3.1296 1.65735,3.7559 0.13283,0.059 0.20612,0.077 0.2401,0.055 0.0638,-0.038 0.7405,-1.8877 0.7186,-1.9601 -0.009,-0.029 -0.0615,-0.071 -0.11514,-0.093 -0.14714,-0.058 -0.41026,-0.3566 -0.45969,-0.5178 -0.18421,-0.599 0.22831,-1.1957 0.82699,-1.1977 0.33024,-8e-4 0.65065,0.2126 0.79863,0.5319 0.091,0.1951 0.0845,0.5397 -0.0151,0.7469 -0.0781,0.1635 -0.28867,0.3786 -0.43779,0.4443 -0.0438,0.02 -0.0879,0.059 -0.0966,0.088 -0.023,0.07 0.65598,1.9196 0.7186,1.9578 0.0373,0.023 0.11177,0 0.26312,-0.067 0.38612,-0.1789 0.74612,-0.453 1.04996,-0.8029 l 0.1404,-0.1623 v 0.1306 c 7.7e-4,0.071 0.0318,0.7447 0.0691,1.4962 0.0371,0.7523 0.0634,1.4248 0.0581,1.4939 l -0.01,0.1261 -1.24512,-1.0323 c -0.68461,-0.5669 -1.25719,-1.0308 -1.27235,-1.0308 -0.0211,0 -1.55008,1.3248 -2.39028,2.0709 l -0.0932,0.083 z" />
        <g
           id="g738403-1-6"
           transform="matrix(2.0182702,0,0,2.0182702,-639.26487,1201.8295)">
          <g
             aria-label="Jordan Open Source Association"
             transform="matrix(0.16191752,0,0,0.15267657,388.01409,82.125909)"
             style="font-style:normal;font-weight:normal;font-size:40px;line-height:20.06px;font-family:sans-serif;letter-spacing:-24.53px;word-spacing:0px;fill:#ffffff;fill-opacity:1;stroke:none;stroke-width:1.78407px;stroke-linecap:butt;stroke-linejoin:miter;stroke-opacity:1"
             id="flowRoot7393-2-2-8-9-7">
            <path
               d="m 60.286406,323.92222 c -0.64,0 -1.2,-0.08 -1.6,-0.2 -0.4,-0.12 -0.72,-0.16 -0.96,-0.16 -0.24,0 -0.48,0.08 -0.64,0.24 -0.16,0.16 -0.32,1.12 -0.44,2.8 1.4,0.4 2.8,0.56 4.16,0.56 1.36,0 2.6,-0.24 3.72,-0.72 3.44,-1.44 5.2,-4.6 5.2,-9.52 v -15.84 l 2.24,-0.44 c 0.4,-0.08 0.64,-0.36 0.64,-0.76 v -1.68 h -10 v 1.68 c 0,0.4 0.16,0.68 0.56,0.76 0.24,0.08 1.16,0.24 2.68,0.48 v 15.92 c 0,4.6 -1.88,6.92 -5.56,6.92 z"
               style="font-style:normal;font-variant:normal;font-weight:normal;font-stretch:normal;line-height:38.9669px;font-family:Aleo;-inkscape-font-specification:Aleo;letter-spacing:0px;fill:#ffffff;stroke-width:1.78407px"
               id="path8821-4-5" />
            <path
               d="m 101.87044,312.44222 c 0,-2.16 -0.32,-4.12 -1,-5.92 -0.68,-1.8 -1.640003,-3.36 -2.880003,-4.64 -1.24,-1.28 -2.72,-2.28 -4.48,-3 -1.76,-0.72 -3.68,-1.08 -5.76,-1.08 -2.08,0 -4,0.36 -5.76,1.08 -1.76,0.72 -3.24,1.76 -4.48,3.04 -1.24,1.28 -2.2,2.84 -2.88,4.64 -0.68,1.8 -1.04,3.76 -1.04,5.92 0,2.16 0.36,4.12 1.04,5.92 0.68,1.8 1.64,3.36 2.88,4.64 1.24,1.28 2.72,2.28 4.48,3 1.76,0.72 3.68,1.12 5.76,1.12 2.08,0 4,-0.4 5.76,-1.12 1.76,-0.72 3.2,-1.72 4.44,-3 1.24,-1.28 2.200003,-2.84 2.880003,-4.64 0.68,-1.8 1,-3.72 1,-5.88 z m -4.000003,0.08 c 0,1.76 -0.24,3.32 -0.72,4.72 -0.48,1.4 -1.16,2.56 -2.04,3.52 -0.88,0.96 -1.92,1.72 -3.2,2.24 -1.28,0.52 -2.68,0.8 -4.2,0.8 -1.52,0 -2.92,-0.28 -4.2,-0.8 -1.28,-0.52 -2.32,-1.28 -3.2,-2.24 -0.88,-0.96 -1.6,-2.12 -2.08,-3.52 -0.48,-1.4 -0.72,-2.96 -0.72,-4.72 0,-1.76 0.24,-3.36 0.72,-4.76 0.48,-1.4 1.2,-2.6 2.08,-3.56 0.88,-0.96 1.92,-1.68 3.2,-2.2 1.28,-0.52 2.64,-0.76 4.16,-0.76 1.52,0 2.96,0.24 4.24,0.76 1.28,0.52 2.32,1.24 3.2,2.2 0.88,0.96 1.52,2.16 2,3.56 0.48,1.4 0.72,3 0.72,4.76 z"
               style="font-style:normal;font-variant:normal;font-weight:normal;font-stretch:normal;line-height:38.9669px;font-family:Aleo;-inkscape-font-specification:Aleo;letter-spacing:0px;fill:#ffffff;stroke-width:1.78407px"
               id="path8833-9-3" />
            <path
               d="m 117.35606,311.68222 c -0.96,-0.4 -2.64,-1 -5.04,-1.8 -0.84,-0.28 -1.6,-0.6 -2.24,-1 -1.44,-0.8 -2.16,-1.92 -2.16,-3.32 0,-1.28 0.48,-2.4 1.36,-3.2 0.96,-0.88 2.32,-1.28 4,-1.28 1.36,0 2.96,0.28 4.72,0.76 0.16,2.32 0.28,3.48 0.28,3.56 0.08,0.48 0.36,0.68 0.84,0.68 h 1.92 v -6.6 c -2.72,-1.12 -5.4,-1.6 -8.04,-1.6 -2.64,0 -4.76,0.8 -6.4,2.4 -1.52,1.52 -2.28,3.28 -2.28,5.44 0,2.28 0.68,4.08 2.12,5.36 0.64,0.56 1.4,1.08 2.2,1.44 0.8,0.36 2.48,0.88 5.04,1.68 0.8,0.24 1.52,0.56 2.16,0.96 1.44,0.8 2.16,2 2.16,3.52 0,1.6 -0.48,2.84 -1.52,3.8 -0.48,0.48 -1.12,0.84 -1.84,1.08 -0.72,0.24 -1.68,0.4 -2.96,0.4 -1.28,0 -2.88,-0.4 -4.88,-1.12 0,0 -0.04,-0.64 -0.12,-1.76 -0.08,-1.12 -0.16,-1.8 -0.2,-1.96 -0.08,-0.48 -0.32,-0.68 -0.8,-0.68 h -1.96 v 7.2 l 1.16,0.4 c 0.8,0.24 1.84,0.52 3.2,0.76 1.36,0.24 2.68,0.36 3.92,0.36 2.96,0 5.36,-0.84 7.12,-2.6 1.68,-1.68 2.48,-3.8 2.48,-6.44 0,-3 -1.44,-5.16 -4.32,-6.44 z"
               style="font-style:normal;font-variant:normal;font-weight:normal;font-stretch:normal;line-height:38.9669px;font-family:Aleo;-inkscape-font-specification:Aleo;letter-spacing:0px;fill:#ffffff;stroke-width:1.78407px"
               id="path8841-0-5" />
            <path
               d="m 150.74394,324.92222 -1.6,-0.48 -10.36,-25.92 h -3.92 l -10.4,25.92 -1.6,0.48 c -0.32,0.08 -0.52,0.28 -0.52,0.64 v 1.6 h 8.2 v -1.6 c 0,-0.36 -0.16,-0.56 -0.52,-0.64 l -1.64,-0.48 2.24,-5.76 h 12.36 l 2.24,5.76 -1.64,0.48 c -0.36,0.08 -0.56,0.28 -0.56,0.64 v 1.6 h 8.24 v -1.6 c 0,-0.36 -0.2,-0.56 -0.52,-0.64 z m -19.04,-9.04 4.28,-11 c 0.24,-0.64 0.48,-1.52 0.8,-2.72 0.28,1.08 0.56,1.96 0.88,2.68 l 4.24,11.04 z"
               style="font-style:normal;font-variant:normal;font-weight:normal;font-stretch:normal;line-height:38.9669px;font-family:Aleo;-inkscape-font-specification:Aleo;letter-spacing:0px;fill:#ffffff;stroke-width:1.78407px"
               id="path8853-91-6" />
          </g>
        </g>
      </g>
    </g>
  </g>
</svg>
