<?xml version="1.0" encoding="UTF-8" standalone="no"?>
<!-- Created with Inkscape (http://www.inkscape.org/) -->

<svg
   width="41.35548mm"
   height="27.091919mm"
   viewBox="0 0 41.35548 27.091919"
   version="1.1"
   id="svg13131"
   xmlns="http://www.w3.org/2000/svg"
   xmlns:svg="http://www.w3.org/2000/svg">
  <defs
     id="defs13128" />
  <g
     id="layer1"
     transform="translate(6.2664658,38.719656)">
    <path
       style="fill:#00b199;fill-opacity:1;stroke:#00b199;stroke-width:0.529167;stroke-opacity:1"
       d="m -5.68261,-12.15381 c -0.33076,-0.33075 -0.33317,-1.22383 -0.007,-2.47724 0.97979,-3.76168 4.47713,-6.31458 8.25394,-6.02504 0.69861,0.0535 1.64339,0.23918 2.09951,0.4125 l 0.82931,0.3151 0.456,-0.57149 c 0.62705,-0.78586 2.27149,-1.97629 3.64824,-2.64102 1.70516,-0.8233 3.27663,-1.12223 5.40115,-1.02743 2.93435,0.13097 5.25303,1.11333 7.42648,3.14648 l 1.04052,0.97336 1.29637,-0.33155 c 2.69921,-0.69034 5.06784,-0.19411 7.2083,1.51013 1.61712,1.28758 2.85422,3.76416 2.85422,5.71392 0,0.97137 -0.1955,1.26377 -0.84492,1.26377 -0.60038,0 -0.72397,-0.21079 -0.95532,-1.62921 -0.3554,-2.17911 -1.57856,-3.87316 -3.46174,-4.79453 -1.1183,-0.54713 -3.11607,-0.73202 -4.30694,-0.3986 -0.41144,0.11526 -0.74808,0.22681 -0.74808,0.24802 0,0.0212 0.21845,0.52035 0.48544,1.10922 0.52453,1.1568 1.01219,3.21952 1.01219,4.28137 0,0.75302 -0.33391,1.18373 -0.91768,1.18373 -0.54848,0 -0.91277,-0.59851 -0.91277,-1.49969 0,-3.03853 -2.3859,-6.62023 -5.36422,-8.05275 -2.45736,-1.18194 -4.89388,-1.34308 -7.44249,-0.49219 -3.70816,1.23802 -6.27667,4.51343 -6.61496,8.43558 -0.055,0.63812 -0.20163,1.24018 -0.33427,1.37282 -0.35439,0.35439 -0.99062,0.28615 -1.28806,-0.13817 -0.4484,-0.63967 -0.0305,-3.24743 0.83343,-5.20097 0.33775,-0.7637 0.38176,-0.99474 0.20996,-1.10188 -0.37549,-0.23416 -1.61998,-0.35729 -2.77069,-0.27412 -2.73211,0.19745 -5.21342,2.58228 -5.46645,5.25393 -0.0494,0.52174 -0.19512,1.11711 -0.32378,1.32304 -0.27394,0.43844 -0.91465,0.49427 -1.296,0.11294 z m 5.93743,-10.80812 c -3.22216,-1.62949 -3.3508,-6.0908 -0.22471,-7.79225 1.68152,-0.91519 3.56511,-0.72252 5.00763,0.51223 1.91967,1.64315 2.01998,4.70038 0.21185,6.45641 -0.8348,0.81074 -1.63845,1.13848 -2.95674,1.20577 -1.00084,0.0511 -1.28774,-0.003 -2.03803,-0.38216 z m 3.39138,-1.75711 c 1.27504,-0.78801 1.55171,-2.74224 0.54982,-3.88333 -0.64095,-0.73001 -1.30648,-0.98841 -2.29983,-0.89297 -1.45121,0.13945 -2.34898,1.15948 -2.34898,2.66885 0,0.96468 0.52561,1.75551 1.49897,2.25534 0.86518,0.44427 1.72062,0.39561 2.60002,-0.14789 z m 21.43759,1.78326 c -0.99816,-0.46481 -2.10512,-1.66129 -2.37722,-2.56947 -0.5205,-1.73726 -0.003,-3.6191 1.30271,-4.7367 2.73975,-2.34513 6.90018,-0.65566 7.27266,2.95329 0.33812,3.2761 -3.18983,5.75374 -6.19815,4.35288 z m 2.9234,-1.64479 c 1.00066,-0.50552 1.49263,-1.27502 1.49263,-2.33462 0,-1.54373 -1.07215,-2.61589 -2.61589,-2.61589 -1.07566,0 -1.83421,0.49542 -2.35003,1.53482 -0.51741,1.04264 -0.38528,1.91181 0.42739,2.81133 0.90569,1.00251 1.87648,1.19512 3.0459,0.60436 z m -15.15948,-1.6737 c -3.06153,-0.86518 -5.08722,-4.06406 -4.47515,-7.06697 0.53465,-2.62309 2.389,-4.47646 5.02325,-5.02063 2.61772,-0.54075 5.40097,0.90333 6.65661,3.45376 0.49346,1.00228 0.54482,1.24816 0.54482,2.60782 0,1.33422 -0.0574,1.62148 -0.51494,2.58281 -1.01685,2.13585 -3.01465,3.4963 -5.29063,3.60278 -0.65086,0.0304 -1.52564,-0.0414 -1.94396,-0.15957 z m 3.5361,-2.00752 c 1.45203,-0.70588 2.32096,-2.03715 2.43522,-3.73098 0.2742,-4.06413 -4.57983,-6.25563 -7.46511,-3.37035 -2.21454,2.21455 -1.53941,5.82378 1.33916,7.15896 0.92594,0.42948 2.74721,0.40105 3.69073,-0.0576 z"
       id="path199579" />
  </g>
</svg>
