<?xml version="1.0" encoding="UTF-8" standalone="no"?>
<!-- Created with Inkscape (http://www.inkscape.org/) -->

<svg
   width="30.42872mm"
   height="33.240559mm"
   viewBox="0 0 30.42872 33.240559"
   version="1.1"
   id="svg13131"
   xmlns="http://www.w3.org/2000/svg"
   xmlns:svg="http://www.w3.org/2000/svg">
  <defs
     id="defs13128" />
  <g
     id="layer1"
     transform="translate(-42.7549,38.378814)">
    <path
       style="fill:#73bc86;fill-opacity:1;stroke:#6db981;stroke-width:0.264583;stroke-opacity:1"
       d="M 43.25453,-5.36459 C 42.84511,-5.54308 42.7578,-6.10862 43.08859,-6.43941 l 0.18823,-0.18823 h 1.16408 1.16408 v -15.52264 c 0,-13.74894 0.0112,-15.54422 0.0977,-15.71154 0.21338,-0.41263 -0.69186,-0.38427 12.26635,-0.38427 12.95821,0 12.05297,-0.0284 12.26635,0.38427 0.0865,0.16732 0.0977,1.9626 0.0977,15.71154 v 15.52264 h 1.16408 1.16408 l 0.18823,0.18823 c 0.34872,0.34872 0.23438,0.93926 -0.212,1.09487 -0.31827,0.11095 -29.12752,0.0913 -29.38292,-0.0201 z m 10.59315,-4.42165 c 0,-2.69737 0.0143,-3.18619 0.0977,-3.34751 0.20222,-0.39106 0.13113,-0.38427 4.02366,-0.38427 3.89253,0 3.82144,-0.007 4.02366,0.38427 0.0834,0.16132 0.0977,0.6502 0.0977,3.34807 v 3.15917 l 3.42909,-0.0167 3.42909,-0.0167 V -21.76077 -36.86164 H 57.96906 46.98954 l -0.0165,15.03647 c -0.009,8.27006 -0.003,15.07269 0.0141,15.11697 0.0239,0.063 0.77283,0.0805 3.4456,0.0805 h 3.41501 z m -5.00274,-5.15348 c -0.11288,-0.0335 -0.26502,-0.13699 -0.33808,-0.22987 -0.1286,-0.16349 -0.13285,-0.24286 -0.13285,-2.48341 v -2.31452 l 0.18272,-0.18272 c 0.12109,-0.12109 0.27857,-0.19685 0.46687,-0.22461 0.15629,-0.0231 1.19697,-0.0328 2.31263,-0.0216 2.24853,0.0225 2.29527,0.0311 2.44223,0.45271 0.0942,0.27021 0.0942,4.33859 0,4.6088 -0.14853,0.42608 -0.17774,0.43113 -2.57102,0.44433 -1.20964,0.007 -2.24742,-0.0149 -2.3625,-0.0491 z m 3.65042,-2.69964 v -1.35232 h -1.38451 -1.38452 v 1.35232 1.35231 h 1.38452 1.38451 z m 3.24477,2.72629 c -0.0748,-0.0155 -0.2197,-0.11564 -0.32198,-0.22239 l -0.18596,-0.1941 v -2.31279 -2.31279 l 0.21052,-0.21053 0.21053,-0.21052 h 2.31578 2.31578 l 0.21053,0.21052 0.21052,0.21053 v 2.31578 2.31578 l -0.21044,0.21052 -0.21044,0.21053 -2.20441,0.009 c -1.21243,0.005 -2.26562,-0.004 -2.34043,-0.0194 z m 3.58121,-2.72629 v -1.35232 H 57.96902 56.6167 v 1.35232 1.35231 h 1.35232 1.35232 z m 3.34859,2.72704 c -0.271,-0.0893 -0.41448,-0.20298 -0.49293,-0.39062 -0.11074,-0.26488 -0.126,-4.32934 -0.0174,-4.64082 0.14697,-0.42157 0.1937,-0.43023 2.44223,-0.45271 1.11567,-0.0112 2.15635,-10e-4 2.31263,0.0216 0.18831,0.0278 0.34578,0.10353 0.46687,0.22461 l 0.18272,0.18272 v 2.31453 c 0,2.23417 -0.005,2.32034 -0.13172,2.48198 -0.0725,0.0921 -0.23907,0.19727 -0.37028,0.23371 -0.23776,0.066 -4.1991,0.0886 -4.3921,0.025 z m 3.54178,-2.72704 v -1.35232 H 64.8272 63.44268 v 1.35232 1.35231 h 1.38452 1.38451 z m -17.42633,-4.18446 c -0.0748,-0.0302 -0.19795,-0.13372 -0.27368,-0.22999 -0.13483,-0.1714 -0.13769,-0.22292 -0.13769,-2.47966 v -2.30462 l 0.19815,-0.19814 0.19814,-0.19814 h 2.31228 2.31229 l 0.2103,0.18784 0.21031,0.18784 0.0185,2.25782 c 0.0159,1.94058 0.004,2.285 -0.0816,2.45131 -0.19657,0.38011 -0.25972,0.38926 -2.65442,0.38477 -1.19711,-0.002 -2.23777,-0.0288 -2.31256,-0.059 z m 3.69516,-2.68982 0.0174,-1.36841 h -1.3858 -1.38579 v 1.38579 1.3858 l 1.36841,-0.0174 1.36842,-0.0174 z m 3.13803,2.66149 c -0.37928,-0.16964 -0.38447,-0.20055 -0.40666,-2.42 -0.0111,-1.11566 -0.001,-2.15635 0.0216,-2.31263 0.0278,-0.18831 0.10352,-0.34578 0.22461,-0.46687 l 0.18272,-0.18272 h 2.32816 2.32817 l 0.18271,0.18272 c 0.12109,0.12109 0.19685,0.27856 0.22461,0.46687 0.0231,0.15628 0.0328,1.19697 0.0216,2.31263 -0.0225,2.24853 -0.0311,2.29527 -0.45271,2.44223 -0.31049,0.10824 -4.40689,0.0887 -4.65485,-0.0222 z m 3.70277,-2.64539 v -1.38451 H 57.96902 56.6167 v 1.38451 1.38452 h 1.35232 1.35232 z m 3.11807,2.61674 c -0.34583,-0.2132 -0.35564,-0.29328 -0.3354,-2.73793 l 0.0185,-2.23996 0.21031,-0.18784 0.2103,-0.18784 h 2.31229 2.31228 l 0.19814,0.19814 0.19814,0.19814 v 2.31229 2.31229 l -0.18784,0.2103 -0.18784,0.21031 -2.2753,0.0172 c -2.13924,0.0162 -2.28717,0.01 -2.47363,-0.10508 z m 3.7723,-2.61674 v -1.38451 H 64.8272 63.44268 v 1.34158 c 0,0.73787 0.0193,1.3609 0.0429,1.38452 0.0236,0.0236 0.64665,0.0429 1.38452,0.0429 h 1.34158 z m -17.63955,-4.35168 -0.19815,-0.19814 v -2.31229 -2.31229 l 0.18784,-0.2103 0.18784,-0.21031 2.25782,-0.0185 c 2.49087,-0.0204 2.54409,-0.0131 2.74485,0.37513 0.086,0.1663 0.0975,0.51073 0.0816,2.45131 l -0.0185,2.25782 -0.21031,0.18784 -0.2103,0.18784 h -2.31229 -2.31229 z m 3.90838,-2.52259 -0.0174,-1.36842 -1.36841,-0.0174 -1.36842,-0.0174 v 1.38579 1.38579 h 1.3858 1.38579 z m 2.9776,2.53801 c -0.12109,-0.12109 -0.19685,-0.27856 -0.22461,-0.46687 -0.023,-0.15628 -0.0328,-1.19697 -0.0216,-2.31263 0.0225,-2.24853 0.0311,-2.29527 0.45271,-2.44223 0.27021,-0.0942 4.33859,-0.0942 4.6088,0 0.42157,0.14696 0.43023,0.1937 0.45271,2.44223 0.0111,1.11566 0.001,2.15635 -0.0216,2.31263 -0.0278,0.18831 -0.10352,0.34578 -0.22461,0.46687 l -0.18271,0.18272 H 57.96906 55.6409 Z m 3.8632,-2.55411 v -1.38452 H 57.96902 56.6167 v 1.38452 1.38451 h 1.35232 1.35232 z m 3.01153,2.54899 -0.21031,-0.18784 -0.0185,-2.25782 c -0.0204,-2.49087 -0.0131,-2.54409 0.37513,-2.74485 0.1663,-0.086 0.51073,-0.0975 2.45131,-0.0816 l 2.25781,0.0185 0.18785,0.2103 0.18783,0.2103 v 2.31229 2.31229 l -0.19814,0.19814 -0.19814,0.19814 h -2.31228 -2.31229 z m 3.87884,-2.55027 v -1.3858 l -1.36841,0.0174 -1.36842,0.0174 -0.0174,1.36842 -0.0174,1.36841 h 1.3858 1.38579 z m -5.50586,21.99252 v -2.73683 h -2.73683 -2.73683 l -0.0168,2.67239 c -0.009,1.46982 -0.003,2.70895 0.0143,2.75363 0.0245,0.064 0.60943,0.0777 2.75366,0.0644 l 2.72248,-0.0168 z"
       id="path265799" />
  </g>
</svg>
