<?xml version="1.0" encoding="UTF-8" standalone="no"?>
<!-- Created with Inkscape (http://www.inkscape.org/) -->

<svg
   width="25.744743mm"
   height="30.89776mm"
   viewBox="0 0 25.744743 30.897761"
   version="1.1"
   id="svg13131"
   xmlns="http://www.w3.org/2000/svg"
   xmlns:svg="http://www.w3.org/2000/svg">
  <defs
     id="defs13128" />
  <g
     id="layer1"
     transform="translate(25.465393,11.460448)">
    <path
       style="fill:#0b97ac;fill-opacity:1;stroke-width:0.193949"
       d="m -21.698713,19.31985 c -1.51502,-0.49709 -3.053707,-1.92062 -3.503057,-3.24085 -0.86589,-2.54415 0.53518,-5.67784 2.908467,-6.50517 l 0.59584,-0.20772 V 3.97347 -1.41916 l -0.53335,-0.19142 c -2.453297,-0.88046 -3.848507,-3.94306 -2.970957,-6.52146 0.32232,-0.94702 1.587447,-2.34051 2.622817,-2.88893 1.1062,-0.58593 3.37551,-0.58598 4.469557,-9e-5 1.02819,0.55062 2.13489,1.71973 2.53576,2.67875 1.06212,2.54089 -0.33908,5.82156 -2.875167,6.73173 -0.45682,0.16395 -0.53336,0.29898 -0.53336,0.94097 0,2.01648 1.515907,4.21929 3.614587,5.25246 1.1331,0.55783 1.48884,0.63279 3.371101,0.71034 l 2.104318,0.0867 0.30972,-0.74125 C -8.79582,2.75599 -7.31657,1.66073 -5.34952,1.50452 c 2.32677,-0.18477 4.05401,0.74554 5.06903,2.73024 0.45825,0.89603 0.56903,1.35543 0.55926,2.31906 -0.0147,1.45218 -0.36457,2.3483 -1.33705,3.42472 -1.12704,1.24749 -2.04035,1.64695 -3.7656,1.64695 -1.11591,0 -1.63835,-0.0973 -2.24365,-0.41785 -0.94167,-0.49868 -2.1025,-1.7355 -2.482527,-2.64503 l -0.27415,-0.65614 -2.397045,-0.0999 C -14.985776,7.69133 -16.146886,7.34011 -17.890076,6.09183 L -18.982163,5.3098 v 2.02818 2.02816 l 0.53336,0.19142 c 1.888427,0.67774 3.232767,2.67475 3.211497,4.77066 -0.007,0.6519 -0.14522,1.50293 -0.30801,1.89117 -0.40458,0.96492 -1.59932,2.24551 -2.54515,2.72803 -0.849317,0.4333 -2.806957,0.63537 -3.608247,0.37246 z m 2.46125,-2.72868 c 2.439037,-1.10736 1.542587,-4.85971 -1.16101,-4.85971 -0.7694,0 -1.86639,0.67539 -2.21456,1.36346 -0.54478,1.07663 -0.16513,2.7259 0.76829,3.33749 0.913,0.59822 1.55343,0.63722 2.60728,0.15876 z M -3.72154,8.8332 c 2.43905,-1.10737 1.54259,-4.85973 -1.161,-4.85973 -0.7694,0 -1.8664,0.67541 -2.21457,1.36347 -0.54477,1.07664 -0.16512,2.7259 0.76829,3.33749 0.91301,0.59823 1.55344,0.63723 2.60728,0.15877 z M -19.157913,-4.08484 c 1.183067,-0.61179 1.694067,-2.33029 1.058437,-3.55948 -0.872997,-1.68818 -3.607677,-1.68818 -4.480667,0 -1.158187,2.23968 1.21041,4.70326 3.42223,3.55948 z"
       id="path195996" />
  </g>
</svg>
