<?xml version="1.0" encoding="UTF-8" standalone="no"?>
<!-- Created with Inkscape (http://www.inkscape.org/) -->

<svg
   width="26.51873mm"
   height="26.51873mm"
   viewBox="0 0 26.51873 26.51873"
   version="1.1"
   id="svg2774"
   inkscape:version="1.1.2 (3e3d20f904, 2022-03-26)"
   sodipodi:docname="josa-icon.svg"
   xmlns:inkscape="http://www.inkscape.org/namespaces/inkscape"
   xmlns:sodipodi="http://sodipodi.sourceforge.net/DTD/sodipodi-0.dtd"
   xmlns="http://www.w3.org/2000/svg"
   xmlns:svg="http://www.w3.org/2000/svg">
  <sodipodi:namedview
     id="namedview2776"
     pagecolor="#ffffff"
     bordercolor="#666666"
     borderopacity="1.0"
     inkscape:pageshadow="2"
     inkscape:pageopacity="0.0"
     inkscape:pagecheckerboard="0"
     inkscape:document-units="mm"
     showgrid="false"
     fit-margin-top="0"
     fit-margin-left="0"
     fit-margin-right="0"
     fit-margin-bottom="0"
     inkscape:zoom="0.733172"
     inkscape:cx="-106.38704"
     inkscape:cy="226.41345"
     inkscape:window-width="1920"
     inkscape:window-height="1016"
     inkscape:window-x="0"
     inkscape:window-y="27"
     inkscape:window-maximized="1"
     inkscape:current-layer="layer1" />
  <defs
     id="defs2771" />
  <g
     inkscape:label="Layer 1"
     inkscape:groupmode="layer"
     id="layer1"
     transform="translate(-85.959961,-88.631622)">
    <rect
       style="fill:#019ec3;fill-opacity:1;stroke:none;stroke-width:0.356997;stroke-linecap:round;stroke-miterlimit:4;stroke-dasharray:0.356997, 2.14199;stroke-dashoffset:0;stroke-opacity:1"
       id="rect241194-8-0-7"
       width="26.51873"
       height="26.51873"
       x="85.959961"
       y="88.631622" />
    <path
       inkscape:connector-curvature="0"
       id="path7518-2-7-1-8-9-8"
       style="fill:#ffffff;fill-opacity:1;fill-rule:nonzero;stroke:none;stroke-width:0.901024"
       d="m 95.071134,109.24823 c 0.02542,-1.45754 0.04886,-2.79335 0.04886,-2.9686 v -0.31568 l -2.834807,-0.5035 c -1.560558,-0.27775 -2.87268,-0.51668 -2.91556,-0.53029 -0.04322,-0.0143 0.968629,-0.82474 2.250926,-1.80148 1.282319,-0.97825 2.331745,-1.803 2.33379,-1.83483 0,-0.0314 -0.627745,-1.21309 -1.394897,-2.623655 -0.767671,-1.408567 -1.392907,-2.568643 -1.386882,-2.572645 0.0066,-0.0051 1.297972,0.312115 2.874205,0.704548 l 2.864576,0.716107 0.09496,-0.181824 c 0.05085,-0.09855 0.571655,-1.315629 1.158056,-2.700408 0.58586,-1.38687 1.080798,-2.521158 1.09843,-2.521158 0.01957,0 0.574264,1.183253 1.229339,2.6277 0.65699,1.443876 1.22717,2.639312 1.26657,2.657014 0.0394,0.01619 1.33529,-0.323243 2.88023,-0.755557 1.54439,-0.429786 2.80902,-0.773208 2.80902,-0.761077 0,0.01094 -0.5914,1.19139 -1.31359,2.623655 -0.7222,1.430316 -1.31408,2.61761 -1.31408,2.63936 0,0.02 1.07316,0.80909 2.38529,1.75194 1.31207,0.94295 2.37515,1.7222 2.36359,1.73433 -0.0217,0.0219 -5.57512,1.17774 -5.65438,1.17774 -0.0234,0 0.0773,-0.21918 0.2232,-0.48737 0.52064,-0.95299 0.69645,-1.65702 0.6944,-2.77569 0,-0.64897 -0.0277,-0.88585 -0.15002,-1.34742 -0.29192,-1.09898 -0.81458,-1.976732 -1.61358,-2.712586 -1.04591,-0.962558 -2.21965,-1.428225 -3.590838,-1.426224 -1.544352,0 -2.799444,0.534334 -3.884255,1.64697 -0.611605,0.627743 -1.01614,1.31002 -1.301951,2.19182 -0.85457,2.6474 0.461564,5.62865 2.980703,6.7549 0.238896,0.10645 0.370686,0.13847 0.43185,0.0985 0.114712,-0.0686 1.331743,-3.39482 1.292379,-3.52515 -0.01581,-0.0516 -0.110588,-0.1282 -0.207071,-0.1676 -0.264675,-0.10446 -0.73788,-0.64141 -0.826735,-0.93134 -0.331344,-1.07724 0.410593,-2.15042 1.487323,-2.15399 0.593935,0 1.170165,0.38235 1.436285,0.95656 0.1637,0.35098 0.15201,0.97068 -0.0272,1.34342 -0.14045,0.29394 -0.51921,0.68076 -0.78736,0.79896 -0.0787,0.0357 -0.158116,0.10645 -0.173724,0.15808 -0.04123,0.12624 1.179774,3.45244 1.292374,3.52115 0.0671,0.0419 0.20103,0.006 0.47326,-0.12034 0.69444,-0.32173 1.34185,-0.81461 1.88829,-1.44392 l 0.25256,-0.29189 v 0.23483 c 0,0.12786 0.0571,1.33939 0.12421,2.69084 0.0668,1.353 0.1141,2.56256 0.10457,2.6868 l -0.0178,0.22676 -2.23934,-1.85655 c -1.23128,-1.01964 -2.261081,-1.85396 -2.288308,-1.85396 -0.03814,0 -2.787837,2.38278 -4.29896,3.72464 l -0.167629,0.14945 z" />
  </g>
</svg>
